<svg xmlns="http://www.w3.org/2000/svg" width="542" height="2076" viewBox="0 0 542 2076">
<rect width="100%" height="100%" fill="white"/>
<text x="271" y="22" text-anchor="middle" font-family="Helvetica, Arial, sans-serif" font-size="16" font-weight="bold" fill="#111">CF_ADC_DSM20</text>
<rect x="166" y="48" width="210" height="1956" fill="#f7f7f7" stroke="#222" stroke-width="1.5"/>
<text x="271" y="1031" text-anchor="middle" font-family="Helvetica, Arial, sans-serif" font-size="13" fill="#333">CF_ADC_DSM20</text>
<line x1="166" y1="69" x2="148" y2="69" stroke="#222" stroke-width="1.25"/>
<text x="142" y="73" text-anchor="end" font-family="Menlo, Consolas, monospace" font-size="11" fill="#111">VREF</text>
<line x1="166" y1="91" x2="148" y2="91" stroke="#222" stroke-width="1.25"/>
<text x="142" y="95" text-anchor="end" font-family="Menlo, Consolas, monospace" font-size="11" fill="#111">EN_ADWA</text>
<line x1="166" y1="113" x2="148" y2="113" stroke="#222" stroke-width="1.25"/>
<text x="142" y="117" text-anchor="end" font-family="Menlo, Consolas, monospace" font-size="11" fill="#111">EN_DWA</text>
<line x1="166" y1="135" x2="148" y2="135" stroke="#222" stroke-width="1.25"/>
<text x="142" y="139" text-anchor="end" font-family="Menlo, Consolas, monospace" font-size="11" fill="#111">MODINPUT</text>
<line x1="166" y1="157" x2="148" y2="157" stroke="#222" stroke-width="1.25"/>
<text x="142" y="161" text-anchor="end" font-family="Menlo, Consolas, monospace" font-size="11" fill="#111">sleep</text>
<line x1="166" y1="179" x2="148" y2="179" stroke="#222" stroke-width="1.25"/>
<text x="142" y="183" text-anchor="end" font-family="Menlo, Consolas, monospace" font-size="11" fill="#111">PBUF_INN</text>
<line x1="166" y1="201" x2="148" y2="201" stroke="#222" stroke-width="1.25"/>
<text x="142" y="205" text-anchor="end" font-family="Menlo, Consolas, monospace" font-size="11" fill="#111">PBUF_INP</text>
<line x1="166" y1="223" x2="148" y2="223" stroke="#222" stroke-width="1.25"/>
<text x="142" y="227" text-anchor="end" font-family="Menlo, Consolas, monospace" font-size="11" fill="#111">buf_sel</text>
<line x1="166" y1="245" x2="148" y2="245" stroke="#222" stroke-width="1.25"/>
<text x="142" y="249" text-anchor="end" font-family="Menlo, Consolas, monospace" font-size="11" fill="#111">enable_hv</text>
<line x1="166" y1="267" x2="148" y2="267" stroke="#222" stroke-width="1.25"/>
<text x="142" y="271" text-anchor="end" font-family="Menlo, Consolas, monospace" font-size="11" fill="#111">VREFQ</text>
<line x1="166" y1="289" x2="148" y2="289" stroke="#222" stroke-width="1.25"/>
<text x="142" y="293" text-anchor="end" font-family="Menlo, Consolas, monospace" font-size="11" fill="#111">disable_mod</text>
<line x1="166" y1="311" x2="148" y2="311" stroke="#222" stroke-width="1.25"/>
<text x="142" y="315" text-anchor="end" font-family="Menlo, Consolas, monospace" font-size="11" fill="#111">iso</text>
<line x1="166" y1="333" x2="148" y2="333" stroke="#222" stroke-width="1.25"/>
<text x="142" y="337" text-anchor="end" font-family="Menlo, Consolas, monospace" font-size="11" fill="#111">phi2_buffer</text>
<line x1="166" y1="355" x2="148" y2="355" stroke="#222" stroke-width="1.25"/>
<text x="142" y="359" text-anchor="end" font-family="Menlo, Consolas, monospace" font-size="11" fill="#111">bypass_p</text>
<line x1="166" y1="377" x2="148" y2="377" stroke="#222" stroke-width="1.25"/>
<text x="142" y="381" text-anchor="end" font-family="Menlo, Consolas, monospace" font-size="11" fill="#111">bypass_n</text>
<line x1="166" y1="399" x2="148" y2="399" stroke="#222" stroke-width="1.25"/>
<text x="142" y="403" text-anchor="end" font-family="Menlo, Consolas, monospace" font-size="11" fill="#111">vpwr_cp_dc</text>
<line x1="166" y1="421" x2="148" y2="421" stroke="#222" stroke-width="1.25"/>
<text x="142" y="425" text-anchor="end" font-family="Menlo, Consolas, monospace" font-size="11" fill="#111">VGND_DAC</text>
<line x1="166" y1="443" x2="148" y2="443" stroke="#222" stroke-width="1.25"/>
<text x="142" y="447" text-anchor="end" font-family="Menlo, Consolas, monospace" font-size="11" fill="#111">vgnde_vnb</text>
<line x1="166" y1="465" x2="148" y2="465" stroke="#222" stroke-width="1.25"/>
<text x="142" y="469" text-anchor="end" font-family="Menlo, Consolas, monospace" font-size="11" fill="#111">vpwr_cp</text>
<line x1="166" y1="487" x2="148" y2="487" stroke="#222" stroke-width="1.25"/>
<text x="142" y="491" text-anchor="end" font-family="Menlo, Consolas, monospace" font-size="11" fill="#111">vgnde</text>
<line x1="166" y1="509" x2="148" y2="509" stroke="#222" stroke-width="1.25"/>
<text x="142" y="513" text-anchor="end" font-family="Menlo, Consolas, monospace" font-size="11" fill="#111">vpwr_ext</text>
<line x1="166" y1="531" x2="148" y2="531" stroke="#222" stroke-width="1.25"/>
<text x="142" y="535" text-anchor="end" font-family="Menlo, Consolas, monospace" font-size="11" fill="#111">SIGN</text>
<line x1="166" y1="553" x2="148" y2="553" stroke="#222" stroke-width="1.25"/>
<text x="142" y="557" text-anchor="end" font-family="Menlo, Consolas, monospace" font-size="11" fill="#111">MODBIT</text>
<line x1="166" y1="575" x2="148" y2="575" stroke="#222" stroke-width="1.25"/>
<text x="142" y="579" text-anchor="end" font-family="Menlo, Consolas, monospace" font-size="11" fill="#111">INN</text>
<line x1="166" y1="597" x2="148" y2="597" stroke="#222" stroke-width="1.25"/>
<text x="142" y="601" text-anchor="end" font-family="Menlo, Consolas, monospace" font-size="11" fill="#111">NONOV[1:0]</text>
<line x1="166" y1="619" x2="148" y2="619" stroke="#222" stroke-width="1.25"/>
<text x="142" y="623" text-anchor="end" font-family="Menlo, Consolas, monospace" font-size="11" fill="#111">INP</text>
<line x1="166" y1="641" x2="148" y2="641" stroke="#222" stroke-width="1.25"/>
<text x="142" y="645" text-anchor="end" font-family="Menlo, Consolas, monospace" font-size="11" fill="#111">clk</text>
<line x1="166" y1="663" x2="148" y2="663" stroke="#222" stroke-width="1.25"/>
<text x="142" y="667" text-anchor="end" font-family="Menlo, Consolas, monospace" font-size="11" fill="#111">CHOP_EN</text>
<line x1="166" y1="685" x2="148" y2="685" stroke="#222" stroke-width="1.25"/>
<text x="142" y="689" text-anchor="end" font-family="Menlo, Consolas, monospace" font-size="11" fill="#111">qlev[1:0]</text>
<line x1="166" y1="707" x2="148" y2="707" stroke="#222" stroke-width="1.25"/>
<text x="142" y="711" text-anchor="end" font-family="Menlo, Consolas, monospace" font-size="11" fill="#111">dig_test_sel[2:0]</text>
<line x1="166" y1="729" x2="148" y2="729" stroke="#222" stroke-width="1.25"/>
<text x="142" y="733" text-anchor="end" font-family="Menlo, Consolas, monospace" font-size="11" fill="#111">RESET3</text>
<line x1="166" y1="751" x2="148" y2="751" stroke="#222" stroke-width="1.25"/>
<text x="142" y="755" text-anchor="end" font-family="Menlo, Consolas, monospace" font-size="11" fill="#111">RESET2</text>
<line x1="166" y1="773" x2="148" y2="773" stroke="#222" stroke-width="1.25"/>
<text x="142" y="777" text-anchor="end" font-family="Menlo, Consolas, monospace" font-size="11" fill="#111">RESET1</text>
<line x1="166" y1="795" x2="148" y2="795" stroke="#222" stroke-width="1.25"/>
<text x="142" y="799" text-anchor="end" font-family="Menlo, Consolas, monospace" font-size="11" fill="#111">ODET_TH[4:0]</text>
<line x1="166" y1="817" x2="148" y2="817" stroke="#222" stroke-width="1.25"/>
<text x="142" y="821" text-anchor="end" font-family="Menlo, Consolas, monospace" font-size="11" fill="#111">ODET</text>
<line x1="166" y1="839" x2="148" y2="839" stroke="#222" stroke-width="1.25"/>
<text x="142" y="843" text-anchor="end" font-family="Menlo, Consolas, monospace" font-size="11" fill="#111">FCHOP[2:0]</text>
<line x1="166" y1="861" x2="148" y2="861" stroke="#222" stroke-width="1.25"/>
<text x="142" y="865" text-anchor="end" font-family="Menlo, Consolas, monospace" font-size="11" fill="#111">RESET_DEC_INPUT</text>
<line x1="166" y1="883" x2="148" y2="883" stroke="#222" stroke-width="1.25"/>
<text x="142" y="887" text-anchor="end" font-family="Menlo, Consolas, monospace" font-size="11" fill="#111">BUF_FCHOP[2:0]</text>
<line x1="166" y1="905" x2="148" y2="905" stroke="#222" stroke-width="1.25"/>
<text x="142" y="909" text-anchor="end" font-family="Menlo, Consolas, monospace" font-size="11" fill="#111">BUF_CHOP_EN</text>
<line x1="166" y1="927" x2="148" y2="927" stroke="#222" stroke-width="1.25"/>
<text x="142" y="931" text-anchor="end" font-family="Menlo, Consolas, monospace" font-size="11" fill="#111">itrim_comp[3:0]</text>
<line x1="166" y1="949" x2="148" y2="949" stroke="#222" stroke-width="1.25"/>
<text x="142" y="953" text-anchor="end" font-family="Menlo, Consolas, monospace" font-size="11" fill="#111">FCAP1EN</text>
<line x1="166" y1="971" x2="148" y2="971" stroke="#222" stroke-width="1.25"/>
<text x="142" y="975" text-anchor="end" font-family="Menlo, Consolas, monospace" font-size="11" fill="#111">FCAP1OFFSET</text>
<line x1="166" y1="993" x2="148" y2="993" stroke="#222" stroke-width="1.25"/>
<text x="142" y="997" text-anchor="end" font-family="Menlo, Consolas, monospace" font-size="11" fill="#111">FCAP2EN</text>
<line x1="166" y1="1015" x2="148" y2="1015" stroke="#222" stroke-width="1.25"/>
<text x="142" y="1019" text-anchor="end" font-family="Menlo, Consolas, monospace" font-size="11" fill="#111">FCAP3EN</text>
<line x1="166" y1="1037" x2="148" y2="1037" stroke="#222" stroke-width="1.25"/>
<text x="142" y="1041" text-anchor="end" font-family="Menlo, Consolas, monospace" font-size="11" fill="#111">IPCAP1EN</text>
<line x1="166" y1="1059" x2="148" y2="1059" stroke="#222" stroke-width="1.25"/>
<text x="142" y="1063" text-anchor="end" font-family="Menlo, Consolas, monospace" font-size="11" fill="#111">RESCAP[2:0]</text>
<line x1="166" y1="1081" x2="148" y2="1081" stroke="#222" stroke-width="1.25"/>
<text x="142" y="1085" text-anchor="end" font-family="Menlo, Consolas, monospace" font-size="11" fill="#111">IPCAP2EN</text>
<line x1="166" y1="1103" x2="148" y2="1103" stroke="#222" stroke-width="1.25"/>
<text x="142" y="1107" text-anchor="end" font-family="Menlo, Consolas, monospace" font-size="11" fill="#111">IPCAP3EN</text>
<line x1="166" y1="1125" x2="148" y2="1125" stroke="#222" stroke-width="1.25"/>
<text x="142" y="1129" text-anchor="end" font-family="Menlo, Consolas, monospace" font-size="11" fill="#111">IPCAP1OFFSET</text>
<line x1="166" y1="1147" x2="148" y2="1147" stroke="#222" stroke-width="1.25"/>
<text x="142" y="1151" text-anchor="end" font-family="Menlo, Consolas, monospace" font-size="11" fill="#111">RESCAPEN</text>
<line x1="166" y1="1169" x2="148" y2="1169" stroke="#222" stroke-width="1.25"/>
<text x="142" y="1173" text-anchor="end" font-family="Menlo, Consolas, monospace" font-size="11" fill="#111">FCAP1[6:0]</text>
<line x1="166" y1="1191" x2="148" y2="1191" stroke="#222" stroke-width="1.25"/>
<text x="142" y="1195" text-anchor="end" font-family="Menlo, Consolas, monospace" font-size="11" fill="#111">IPCAP1[6:0]</text>
<line x1="166" y1="1213" x2="148" y2="1213" stroke="#222" stroke-width="1.25"/>
<text x="142" y="1217" text-anchor="end" font-family="Menlo, Consolas, monospace" font-size="11" fill="#111">DACCAP[5:0]</text>
<line x1="166" y1="1235" x2="148" y2="1235" stroke="#222" stroke-width="1.25"/>
<text x="142" y="1239" text-anchor="end" font-family="Menlo, Consolas, monospace" font-size="11" fill="#111">DACCAPEN</text>
<line x1="166" y1="1257" x2="148" y2="1257" stroke="#222" stroke-width="1.25"/>
<text x="142" y="1261" text-anchor="end" font-family="Menlo, Consolas, monospace" font-size="11" fill="#111">FCAP2[3:0]</text>
<line x1="166" y1="1279" x2="148" y2="1279" stroke="#222" stroke-width="1.25"/>
<text x="142" y="1283" text-anchor="end" font-family="Menlo, Consolas, monospace" font-size="11" fill="#111">FCAP3[3:0]</text>
<line x1="166" y1="1301" x2="148" y2="1301" stroke="#222" stroke-width="1.25"/>
<text x="142" y="1305" text-anchor="end" font-family="Menlo, Consolas, monospace" font-size="11" fill="#111">IPCAP2[2:0]</text>
<line x1="166" y1="1323" x2="148" y2="1323" stroke="#222" stroke-width="1.25"/>
<text x="142" y="1327" text-anchor="end" font-family="Menlo, Consolas, monospace" font-size="11" fill="#111">IPCAP3[2:0]</text>
<line x1="166" y1="1345" x2="148" y2="1345" stroke="#222" stroke-width="1.25"/>
<text x="142" y="1349" text-anchor="end" font-family="Menlo, Consolas, monospace" font-size="11" fill="#111">SUMCAP1[2:0]</text>
<line x1="166" y1="1367" x2="148" y2="1367" stroke="#222" stroke-width="1.25"/>
<text x="142" y="1371" text-anchor="end" font-family="Menlo, Consolas, monospace" font-size="11" fill="#111">SUMCAP1_EN</text>
<line x1="166" y1="1389" x2="148" y2="1389" stroke="#222" stroke-width="1.25"/>
<text x="142" y="1393" text-anchor="end" font-family="Menlo, Consolas, monospace" font-size="11" fill="#111">SUMCAP2[2:0]</text>
<line x1="166" y1="1411" x2="148" y2="1411" stroke="#222" stroke-width="1.25"/>
<text x="142" y="1415" text-anchor="end" font-family="Menlo, Consolas, monospace" font-size="11" fill="#111">SUMCAP2_EN</text>
<line x1="166" y1="1433" x2="148" y2="1433" stroke="#222" stroke-width="1.25"/>
<text x="142" y="1437" text-anchor="end" font-family="Menlo, Consolas, monospace" font-size="11" fill="#111">refsel[15:0]</text>
<line x1="166" y1="1455" x2="148" y2="1455" stroke="#222" stroke-width="1.25"/>
<text x="142" y="1459" text-anchor="end" font-family="Menlo, Consolas, monospace" font-size="11" fill="#111">SUMCAP3_EN</text>
<line x1="166" y1="1477" x2="148" y2="1477" stroke="#222" stroke-width="1.25"/>
<text x="142" y="1481" text-anchor="end" font-family="Menlo, Consolas, monospace" font-size="11" fill="#111">SUMCAP3[2:0]</text>
<line x1="166" y1="1499" x2="148" y2="1499" stroke="#222" stroke-width="1.25"/>
<text x="142" y="1503" text-anchor="end" font-family="Menlo, Consolas, monospace" font-size="11" fill="#111">SUMCAPFB[3:0]</text>
<line x1="166" y1="1521" x2="148" y2="1521" stroke="#222" stroke-width="1.25"/>
<text x="142" y="1525" text-anchor="end" font-family="Menlo, Consolas, monospace" font-size="11" fill="#111">SUMCAPFB_EN</text>
<line x1="166" y1="1543" x2="148" y2="1543" stroke="#222" stroke-width="1.25"/>
<text x="142" y="1547" text-anchor="end" font-family="Menlo, Consolas, monospace" font-size="11" fill="#111">SUMCAPIN[4:0]</text>
<line x1="166" y1="1565" x2="148" y2="1565" stroke="#222" stroke-width="1.25"/>
<text x="142" y="1569" text-anchor="end" font-family="Menlo, Consolas, monospace" font-size="11" fill="#111">bw[3:0]</text>
<line x1="166" y1="1587" x2="148" y2="1587" stroke="#222" stroke-width="1.25"/>
<text x="142" y="1591" text-anchor="end" font-family="Menlo, Consolas, monospace" font-size="11" fill="#111">SUMCAPIN_EN</text>
<line x1="166" y1="1609" x2="148" y2="1609" stroke="#222" stroke-width="1.25"/>
<text x="142" y="1613" text-anchor="end" font-family="Menlo, Consolas, monospace" font-size="11" fill="#111">itrim_2_3[5:0]</text>
<line x1="166" y1="1631" x2="148" y2="1631" stroke="#222" stroke-width="1.25"/>
<text x="142" y="1635" text-anchor="end" font-family="Menlo, Consolas, monospace" font-size="11" fill="#111">itrim_sum[5:0]</text>
<line x1="166" y1="1653" x2="148" y2="1653" stroke="#222" stroke-width="1.25"/>
<text x="142" y="1657" text-anchor="end" font-family="Menlo, Consolas, monospace" font-size="11" fill="#111">itrim_1[9:0]</text>
<line x1="166" y1="1675" x2="148" y2="1675" stroke="#222" stroke-width="1.25"/>
<text x="142" y="1679" text-anchor="end" font-family="Menlo, Consolas, monospace" font-size="11" fill="#111">iin</text>
<line x1="166" y1="1697" x2="148" y2="1697" stroke="#222" stroke-width="1.25"/>
<text x="142" y="1701" text-anchor="end" font-family="Menlo, Consolas, monospace" font-size="11" fill="#111">iinc</text>
<line x1="166" y1="1719" x2="148" y2="1719" stroke="#222" stroke-width="1.25"/>
<text x="142" y="1723" text-anchor="end" font-family="Menlo, Consolas, monospace" font-size="11" fill="#111">dout[7:0]</text>
<line x1="166" y1="1741" x2="148" y2="1741" stroke="#222" stroke-width="1.25"/>
<text x="142" y="1745" text-anchor="end" font-family="Menlo, Consolas, monospace" font-size="11" fill="#111">SCANINPUT</text>
<line x1="166" y1="1763" x2="148" y2="1763" stroke="#222" stroke-width="1.25"/>
<text x="142" y="1767" text-anchor="end" font-family="Menlo, Consolas, monospace" font-size="11" fill="#111">SCANMODE</text>
<line x1="166" y1="1785" x2="148" y2="1785" stroke="#222" stroke-width="1.25"/>
<text x="142" y="1789" text-anchor="end" font-family="Menlo, Consolas, monospace" font-size="11" fill="#111">SCANCLK</text>
<line x1="166" y1="1807" x2="148" y2="1807" stroke="#222" stroke-width="1.25"/>
<text x="142" y="1811" text-anchor="end" font-family="Menlo, Consolas, monospace" font-size="11" fill="#111">SCANEN</text>
<line x1="166" y1="1829" x2="148" y2="1829" stroke="#222" stroke-width="1.25"/>
<text x="142" y="1833" text-anchor="end" font-family="Menlo, Consolas, monospace" font-size="11" fill="#111">reset_b</text>
<line x1="166" y1="1851" x2="148" y2="1851" stroke="#222" stroke-width="1.25"/>
<text x="142" y="1855" text-anchor="end" font-family="Menlo, Consolas, monospace" font-size="11" fill="#111">EN_DEM</text>
<line x1="166" y1="1873" x2="148" y2="1873" stroke="#222" stroke-width="1.25"/>
<text x="142" y="1877" text-anchor="end" font-family="Menlo, Consolas, monospace" font-size="11" fill="#111">test[7:0]</text>
<line x1="166" y1="1895" x2="148" y2="1895" stroke="#222" stroke-width="1.25"/>
<text x="142" y="1899" text-anchor="end" font-family="Menlo, Consolas, monospace" font-size="11" fill="#111">TESTMODE</text>
<line x1="166" y1="1917" x2="148" y2="1917" stroke="#222" stroke-width="1.25"/>
<text x="142" y="1921" text-anchor="end" font-family="Menlo, Consolas, monospace" font-size="11" fill="#111">VCM</text>
<line x1="166" y1="1939" x2="148" y2="1939" stroke="#222" stroke-width="1.25"/>
<text x="142" y="1943" text-anchor="end" font-family="Menlo, Consolas, monospace" font-size="11" fill="#111">vgndd_vnb</text>
<line x1="166" y1="1961" x2="148" y2="1961" stroke="#222" stroke-width="1.25"/>
<text x="142" y="1965" text-anchor="end" font-family="Menlo, Consolas, monospace" font-size="11" fill="#111">vpwr_int</text>
<line x1="166" y1="1983" x2="148" y2="1983" stroke="#222" stroke-width="1.25"/>
<text x="142" y="1987" text-anchor="end" font-family="Menlo, Consolas, monospace" font-size="11" fill="#111">vpwrd_int</text>
<line x1="376" y1="949" x2="394" y2="949" stroke="#222" stroke-width="1.25"/>
<text x="400" y="953" text-anchor="start" font-family="Menlo, Consolas, monospace" font-size="11" fill="#111">SUMN_TEST</text>
<line x1="376" y1="971" x2="394" y2="971" stroke="#222" stroke-width="1.25"/>
<text x="400" y="975" text-anchor="start" font-family="Menlo, Consolas, monospace" font-size="11" fill="#111">refout</text>
<line x1="376" y1="993" x2="394" y2="993" stroke="#222" stroke-width="1.25"/>
<text x="400" y="997" text-anchor="start" font-family="Menlo, Consolas, monospace" font-size="11" fill="#111">SUMP_TEST</text>
<line x1="376" y1="1015" x2="394" y2="1015" stroke="#222" stroke-width="1.25"/>
<text x="400" y="1019" text-anchor="start" font-family="Menlo, Consolas, monospace" font-size="11" fill="#111">test_dig_out</text>
<line x1="376" y1="1037" x2="394" y2="1037" stroke="#222" stroke-width="1.25"/>
<text x="400" y="1041" text-anchor="start" font-family="Menlo, Consolas, monospace" font-size="11" fill="#111">buf_chopclk</text>
<line x1="376" y1="1059" x2="394" y2="1059" stroke="#222" stroke-width="1.25"/>
<text x="400" y="1063" text-anchor="start" font-family="Menlo, Consolas, monospace" font-size="11" fill="#111">SCANOUTPUT</text>
<line x1="376" y1="1081" x2="394" y2="1081" stroke="#222" stroke-width="1.25"/>
<text x="400" y="1085" text-anchor="start" font-family="Menlo, Consolas, monospace" font-size="11" fill="#111">overload_det_zero</text>
<line x1="376" y1="1103" x2="394" y2="1103" stroke="#222" stroke-width="1.25"/>
<text x="400" y="1107" text-anchor="start" font-family="Menlo, Consolas, monospace" font-size="11" fill="#111">overload_det_one</text>
<line x1="178" y1="2004" x2="178" y2="2018" stroke="#222" stroke-width="1.25"/>
<text x="178" y="2032" text-anchor="middle" font-family="Menlo, Consolas, monospace" font-size="10" fill="#111">vgnd</text>
<line x1="364" y1="2004" x2="364" y2="2018" stroke="#222" stroke-width="1.25"/>
<text x="364" y="2032" text-anchor="middle" font-family="Menlo, Consolas, monospace" font-size="10" fill="#111">vpwr</text>
</svg>
